<?xml version="1.0" encoding="UTF-8"?>
<svg width="339px" height="236px" viewBox="0 0 339 236" version="1.1" xmlns="http://www.w3.org/2000/svg" xmlns:xlink="http://www.w3.org/1999/xlink">
    <title>Logo</title>
    <g id="Logo" stroke="none" stroke-width="1" fill="none" fill-rule="evenodd">
        <g id="Logo" transform="translate(-87.000000, -138.000000)" fill="#000000">
            <polygon id="Triangle" points="114 334 141 374 87 374"></polygon>
            <polygon id="Triangle-Copy" transform="translate(399.000000, 158.000000) scale(1, -1) translate(-399.000000, -158.000000)" points="399 138 426 178 372 178"></polygon>
            <path d="M174.548468,139 L174.548468,139 L174.548468,139 L247.338702,338.728441 C252.37832,352.556602 245.253799,367.851959 231.425638,372.891577 C230.13157,373.363195 228.802887,373.73378 227.451532,374 L227.451532,374 L227.451532,374 L154.661298,174.271559 C149.62168,160.443398 156.746201,145.148041 170.574362,140.108423 C171.86843,139.636805 173.197113,139.26622 174.548468,139 Z" id="Rectangle"></path>
            <path d="M288.548468,138 L288.548468,138 L288.548468,138 L361.338702,337.728441 C366.37832,351.556602 359.253799,366.851959 345.425638,371.891577 C344.13157,372.363195 342.802887,372.73378 341.451532,373 L341.451532,373 L341.451532,373 L268.661298,173.271559 C263.62168,159.443398 270.746201,144.148041 284.574362,139.108423 C285.86843,138.636805 287.197113,138.26622 288.548468,138 Z" id="Rectangle-Copy"></path>
        </g>
    </g>
</svg>